<svg xmlns="http://www.w3.org/2000/svg" viewBox="0 0 318.48 319.1"><defs><style>.cls-1{fill:#eceff1;}.cls-2{fill:#30734d;}</style></defs><g id="Layer_2" data-name="Layer 2"><g id="Layer_1-2" data-name="Layer 1"><path class="cls-1" d="M213.52,319.1h105V199.4C300.85,227.52,271.43,274.59,213.52,319.1Z"/><path class="cls-1" d="M304.91,204.39a85,85,0,0,0,13.57-46V125.56c-13.81,23.47-39.54,65.73-61,91.3C217.82,264,131.63,319.1,131.63,319.1l69.09-.4c8.74-6.3,8.91-6.92,17.89-14.54C256.31,272.16,285.09,235.17,304.91,204.39Z"/><path class="cls-1" d="M134,80.15,0,28.3V229.75c70.63,61,147.43,59.42,164.91,43.77C250.34,197,107.17,177,134,80.15Z"/><path class="cls-1" d="M99.39,291.57c-38-3.56-72-21.11-99.39-46.89v72.19s71.57,5,94.7,0c15.58-3.39,46.69-25,48.44-26C129.33,293.69,116.94,293.21,99.39,291.57Z"/><path class="cls-1" d="M194.85,260.13c19.2-12.94,39.42-29.31,57.48-51.1,8.51-10.27,16-20,22.68-29A223.82,223.82,0,0,0,318.48,47.48h0C311.79,54,300.13,65,294.76,68.25c-9.88-12.2-17.95-26.91-45.72-33.69S197.4,36.28,172.93,34C144.71,31.32,122,17,104.61,0H15.51A15.52,15.52,0,0,0,0,15.51H0L146.83,74.82C110.34,162.33,237.41,171.89,194.85,260.13Z"/><path class="cls-1" d="M256.09,23.8c19.51,5.74,24.69,13.39,39.24,28.63l23.15-19.6V0H123.55C174.5,41.73,212.49,11,256.09,23.8Z"/><circle class="cls-2" cx="208.3" cy="104.5" r="39.52" transform="translate(32.04 256.95) rotate(-67.5)"/></g></g></svg>