<svg xmlns="http://www.w3.org/2000/svg" viewBox="0 0 783.46 319.1"><defs><style>.cls-1{fill:#30734d;}.cls-2{fill:#eceff1;}</style></defs><g id="Layer_2" data-name="Layer 2"><g id="Layer_1-2" data-name="Layer 1"><path class="cls-1" d="M451.2,146.22l27.45-64.43h.6l27.37,64.43H495.31l-19.38-49,7.14-4.68L461,146.22Zm17.34-23h21.08l3.4,8.33H465.48Z"/><path class="cls-1" d="M514.61,146.22l21.76-34.09,4.67,9.78-14.19,24.31Zm.85-61.88h12.66l40.29,61.88H555.75Zm26.09,24.14,14.11-24.14h12L546.82,117Z"/><path class="cls-1" d="M583,84.34h9.94v61.88H583Z"/><path class="cls-1" d="M622.22,124a12.17,12.17,0,0,0,1.91,6.67,14.9,14.9,0,0,0,5.06,4.89,13.56,13.56,0,0,0,7,1.87,14.38,14.38,0,0,0,7.31-1.87,14.71,14.71,0,0,0,5.14-4.89,12.18,12.18,0,0,0,1.92-6.67V84.34h9.69v39.78a21.71,21.71,0,0,1-11.95,19.93,27.07,27.07,0,0,1-24.18,0,21.78,21.78,0,0,1-11.9-19.93V84.34h10Z"/><path class="cls-1" d="M679.68,146.22V82.13h.08l33.32,47.17-4.25-.93L742,82.13h.17v64.09h-9.86V104.48l.6,5-22.36,31.7h-.17l-22.78-31.7,1.7-4.59v41.31Z"/><path class="cls-1" d="M422.89,186.34h9.95V238.7h30.51v9.52H422.89Z"/><path class="cls-1" d="M488.77,226a12.26,12.26,0,0,0,1.91,6.67,15,15,0,0,0,5.06,4.89,13.59,13.59,0,0,0,7.05,1.87,14.38,14.38,0,0,0,7.31-1.87,14.74,14.74,0,0,0,5.15-4.89,12.26,12.26,0,0,0,1.91-6.67V186.34h9.69v39.78a21.72,21.72,0,0,1-11.94,19.93,25.91,25.91,0,0,1-12.12,2.85,25.62,25.62,0,0,1-12.07-2.85,22.31,22.31,0,0,1-8.67-8,22,22,0,0,1-3.23-11.94V186.34h9.95Z"/><path class="cls-1" d="M546.23,248.22V184.13h.08l33.32,47.17-4.25-.93,33.15-46.24h.17v64.09h-9.86V206.48l.6,5-22.36,31.7h-.17l-22.78-31.7,1.7-4.59v41.31Z"/><path class="cls-1" d="M629.1,186.34h9.95v61.88H629.1Z"/><path class="cls-1" d="M713.85,250.43l-47.52-46.07,3,1.19.17,42.67h-10v-64H660l46.66,46.07-2.21-.68-.17-43.26h9.86v64.09Z"/><path class="cls-1" d="M728,248.22l27.46-64.43h.59l27.37,64.43h-11.3l-19.38-49,7.14-4.68-22.1,53.64Zm17.34-22.95h21.08l3.4,8.33H742.32Z"/><path class="cls-2" d="M213.52,319.1h105V199.4C300.85,227.52,271.43,274.59,213.52,319.1Z"/><path class="cls-2" d="M304.91,204.39a85,85,0,0,0,13.57-46V125.56c-13.81,23.47-39.54,65.73-61,91.3C217.82,264,131.63,319.1,131.63,319.1l69.09-.4c8.74-6.3,8.91-6.92,17.89-14.54C256.31,272.16,285.09,235.17,304.91,204.39Z"/><path class="cls-2" d="M134,80.15,0,28.3V229.75c70.63,61,147.43,59.42,164.91,43.77C250.34,197,107.17,177,134,80.15Z"/><path class="cls-2" d="M99.39,291.57c-38-3.56-72-21.11-99.39-46.89v72.19s71.57,5,94.7,0c15.58-3.39,46.69-25,48.44-26C129.33,293.69,116.94,293.21,99.39,291.57Z"/><path class="cls-2" d="M194.85,260.13c19.2-12.94,39.42-29.31,57.48-51.1,8.51-10.27,16-20,22.68-29A223.82,223.82,0,0,0,318.48,47.48h0C311.79,54,300.13,65,294.76,68.25c-9.88-12.2-17.95-26.91-45.72-33.69S197.4,36.28,172.93,34C144.71,31.32,122,17,104.61,0H15.51A15.52,15.52,0,0,0,0,15.51H0L146.83,74.82C110.34,162.33,237.41,171.89,194.85,260.13Z"/><path class="cls-2" d="M256.09,23.8c19.51,5.74,24.69,13.39,39.24,28.63l23.15-19.6V0H123.55C174.5,41.73,212.49,11,256.09,23.8Z"/><circle class="cls-1" cx="210.3" cy="102.95" r="39.52" transform="translate(34.7 257.84) rotate(-67.5)"/></g></g></svg>