<svg xmlns="http://www.w3.org/2000/svg" viewBox="0 0 814.57 350"><defs><style>.cls-1{fill:#30734d;}.cls-2{fill:#eceff1;}</style></defs><g id="Layer_2" data-name="Layer 2"><g id="Layer_1-2" data-name="Layer 1"><path class="cls-1" d="M482.31,147.37l27.46-64.43h.59l27.37,64.43h-11.3l-19.38-49,7.14-4.68-22.1,53.64Zm17.34-23h21.08l3.4,8.33H496.59Z"/><path class="cls-1" d="M545.72,147.37l21.76-34.09,4.67,9.78L558,147.37Zm.85-61.88h12.66l40.29,61.88H586.86Zm26.09,24.14,14.11-24.14h12l-20.83,32.64Z"/><path class="cls-1" d="M614.06,85.49H624v61.88h-9.94Z"/><path class="cls-1" d="M653.33,125.1a12.15,12.15,0,0,0,1.91,6.67,14.9,14.9,0,0,0,5.06,4.89,13.47,13.47,0,0,0,7.05,1.87,14.28,14.28,0,0,0,7.31-1.87,14.63,14.63,0,0,0,5.14-4.89,12.16,12.16,0,0,0,1.92-6.67V85.49h9.69v39.78a21.71,21.71,0,0,1-11.95,19.93,27.07,27.07,0,0,1-24.18,0,22.31,22.31,0,0,1-8.67-8,22,22,0,0,1-3.23-11.94V85.49h10Z"/><path class="cls-1" d="M710.79,147.37V83.28h.08l33.32,47.17-4.25-.93,33.15-46.24h.17v64.09H763.4V105.63l.6,5-22.36,31.7h-.17l-22.78-31.7,1.7-4.59v41.31Z"/><path class="cls-1" d="M454,187.49H464v52.36h30.52v9.52H454Z"/><path class="cls-1" d="M519.88,227.1a12.23,12.23,0,0,0,1.91,6.67,15,15,0,0,0,5.06,4.89,13.53,13.53,0,0,0,7.06,1.87,14.27,14.27,0,0,0,7.3-1.87,14.74,14.74,0,0,0,5.15-4.89,12.23,12.23,0,0,0,1.91-6.67V187.49H558v39.78A21.72,21.72,0,0,1,546,247.2a25.9,25.9,0,0,1-12.11,2.85,25.63,25.63,0,0,1-12.08-2.85,22.31,22.31,0,0,1-8.67-8,22,22,0,0,1-3.23-11.94V187.49h9.95Z"/><path class="cls-1" d="M577.34,249.37V185.28h.08l33.32,47.17-4.25-.93,33.15-46.24h.17v64.09H630V207.63l.6,5-22.36,31.7H608l-22.78-31.7,1.7-4.59v41.31Z"/><path class="cls-1" d="M660.21,187.49h9.95v61.88h-9.95Z"/><path class="cls-1" d="M745,251.58l-47.52-46.07,3,1.19.17,42.67h-10v-64h.51l46.66,46.07-2.21-.68-.17-43.26h9.86v64.09Z"/><path class="cls-1" d="M759.15,249.37l27.46-64.43h.59l27.37,64.43h-11.3l-19.38-49,7.14-4.68-22.1,53.64Zm17.34-23h21.08l3.4,8.33H773.43Z"/><circle class="cls-1" cx="225.28" cy="119.94" r="39.52" transform="translate(28.26 282.17) rotate(-67.5)"/><path class="cls-2" d="M0,0V350a0,0,0,0,0,0,0H350a0,0,0,0,0,0,0V0a0,0,0,0,0,0,0H0A0,0,0,0,0,0,0ZM332.19,17.35V50.12a0,0,0,0,1,0,0L309.07,69.71s0,0-.05,0c-14.53-15.23-19.72-22.87-39.22-28.6C226.23,28.28,188.26,59,137.35,17.38a0,0,0,0,1,0-.07H332.15A0,0,0,0,1,332.19,17.35Zm-303,0h89.08s0,0,0,0c17.4,17,40.1,31.3,68.32,34,24.46,2.3,48.41-6.17,76.11.59s35.82,21.46,45.69,33.66a0,0,0,0,0,.05,0c5.38-3.31,17-14.26,23.69-20.75h0a223.85,223.85,0,0,1-43.46,132.53c-6.64,9-14.17,18.75-22.69,29-18.06,21.79-38.28,38.15-57.47,51.09,42.55-88.22-84.47-97.79-48-185.26a.05.05,0,0,0,0-.07L13.74,32.83a.05.05,0,0,1,0,0A15.5,15.5,0,0,1,29.23,17.31ZM13.77,45.63,147.68,97.44a.05.05,0,0,1,0,0c-26.79,96.82,116.34,116.84,30.92,193.33C161.15,306.47,84.35,308,13.73,247.07a0,0,0,0,1,0,0V45.66A0,0,0,0,1,13.77,45.63Zm0,288.5V262.08a0,0,0,0,1,.06,0c27.34,25.75,61.33,43.27,99.32,46.82,17.46,1.64,29.81,2.12,43.54-.64a0,0,0,0,1,0,.07c-3.08,1.95-33.06,22.57-48.25,25.87-22.84,5-92.85.13-94.67,0C13.73,334.17,13.72,334.16,13.72,334.13Zm318.43,2.28H227.35s-.06-.05,0-.07c57.77-44.43,87.17-91.4,104.8-119.52,0,0,.07,0,.07,0V336.37A0,0,0,0,1,332.15,336.41ZM318.62,221.7c-19.82,30.79-48.6,67.76-86.3,99.77-9,7.61-9.14,8.24-17.87,14.53h0l-68.94.4a0,0,0,0,1,0-.08c3.53-2.26,86.91-56,125.7-102.17,21.45-25.51,47.13-67.67,61-91.17a0,0,0,0,1,.07,0V175.7A85,85,0,0,1,318.62,221.7Z"/></g></g></svg>